<mxfile host="app.diagrams.net" modified="2024-04-04T08:44:34.112Z" agent="Mozilla/5.0 (Macintosh; Intel Mac OS X 10_15_7) AppleWebKit/537.36 (KHTML, like Gecko) Chrome/123.0.0.0 Safari/537.36" etag="xp9WnBHy5K4y8ag715ma" version="24.0.8" type="github">
  <diagram name="Page-1" id="80d4a630-b321-0f5e-ff81-c5a36ef4752d">
    <mxGraphModel dx="2726" dy="1731" grid="1" gridSize="10" guides="1" tooltips="1" connect="1" arrows="1" fold="1" page="1" pageScale="1" pageWidth="1100" pageHeight="850" background="none" math="0" shadow="0">
      <root>
        <mxCell id="0" />
        <mxCell id="1" parent="0" />
        <mxCell id="5c82df7aa0dc6260-15" value="" style="ellipse;whiteSpace=wrap;html=1;rounded=1;shadow=0;comic=0;labelBackgroundColor=none;strokeColor=#6881B3;strokeWidth=2;fillColor=#CCFFCC;fontFamily=Helvetica;fontSize=22;fontColor=#000000;verticalAlign=middle;gradientColor=none;gradientDirection=north;spacingBottom=36;" parent="1" vertex="1">
          <mxGeometry x="1455" y="561.5" width="580" height="250" as="geometry" />
        </mxCell>
        <mxCell id="5c82df7aa0dc6260-43" value="" style="ellipse;shape=cloud;whiteSpace=wrap;html=1;rounded=1;shadow=0;comic=0;strokeColor=none;strokeWidth=2;fillColor=#3399FF;fontColor=#0066CC;" parent="1" vertex="1">
          <mxGeometry x="1667" y="627.5" width="110" height="35" as="geometry" />
        </mxCell>
        <mxCell id="5c82df7aa0dc6260-14" value="" style="ellipse;whiteSpace=wrap;html=1;rounded=1;shadow=0;comic=0;labelBackgroundColor=none;strokeColor=#6881B3;strokeWidth=2;fillColor=#CCFFCC;fontFamily=Helvetica;fontSize=22;fontColor=#000000;verticalAlign=middle;gradientColor=none;gradientDirection=north;spacingBottom=17;" parent="1" vertex="1">
          <mxGeometry x="20" y="516.5" width="683" height="270" as="geometry" />
        </mxCell>
        <mxCell id="5c82df7aa0dc6260-13" value="" style="ellipse;whiteSpace=wrap;html=1;rounded=1;shadow=0;comic=0;labelBackgroundColor=none;strokeColor=#6881B3;strokeWidth=2;fillColor=#CCFFCC;fontFamily=Helvetica;fontSize=22;fontColor=#000000;verticalAlign=middle;gradientColor=none;gradientDirection=north;" parent="1" vertex="1">
          <mxGeometry x="1440" y="63" width="720" height="270" as="geometry" />
        </mxCell>
        <mxCell id="5c82df7aa0dc6260-8" value="" style="fontColor=#0066CC;verticalAlign=top;verticalLabelPosition=bottom;labelPosition=center;align=center;html=1;fillColor=#CCCCCC;strokeColor=#000000;gradientColor=none;gradientDirection=north;strokeWidth=2;shape=mxgraph.networks.business_center;rounded=1;shadow=0;comic=0;labelBackgroundColor=none;" parent="1" vertex="1">
          <mxGeometry x="1695" y="501.5" width="90" height="100" as="geometry" />
        </mxCell>
        <mxCell id="5c82df7aa0dc6260-9" value="" style="fontColor=#0066CC;verticalAlign=top;verticalLabelPosition=bottom;labelPosition=center;align=center;html=1;fillColor=#CCCCCC;strokeColor=#000000;gradientColor=none;gradientDirection=north;strokeWidth=2;shape=mxgraph.networks.business_center;rounded=1;shadow=0;comic=0;labelBackgroundColor=none;" parent="1" vertex="1">
          <mxGeometry x="1725" y="691.5" width="90" height="100" as="geometry" />
        </mxCell>
        <mxCell id="5c82df7aa0dc6260-10" value="" style="fontColor=#0066CC;verticalAlign=top;verticalLabelPosition=bottom;labelPosition=center;align=center;html=1;fillColor=#CCCCCC;strokeColor=#000000;gradientColor=none;gradientDirection=north;strokeWidth=2;shape=mxgraph.networks.business_center;rounded=1;shadow=0;comic=0;labelBackgroundColor=none;" parent="1" vertex="1">
          <mxGeometry x="500" y="646.5" width="90" height="100" as="geometry" />
        </mxCell>
        <mxCell id="5c82df7aa0dc6260-12" value="" style="fontColor=#0066CC;verticalAlign=top;verticalLabelPosition=bottom;labelPosition=center;align=center;html=1;fillColor=#CCCCCC;strokeColor=#000000;gradientColor=none;gradientDirection=north;strokeWidth=2;shape=mxgraph.networks.community;rounded=1;shadow=0;comic=0;labelBackgroundColor=none;" parent="1" vertex="1">
          <mxGeometry x="1925" y="601.5" width="95" height="100" as="geometry" />
        </mxCell>
        <mxCell id="5c82df7aa0dc6260-17" value="" style="fontColor=#0066CC;verticalAlign=top;verticalLabelPosition=bottom;labelPosition=center;align=center;html=1;fillColor=#CCCCCC;strokeColor=#000000;gradientColor=none;gradientDirection=north;strokeWidth=2;shape=mxgraph.networks.business_center;rounded=1;shadow=0;comic=0;labelBackgroundColor=none;" parent="1" vertex="1">
          <mxGeometry x="1895" y="46" width="90" height="100" as="geometry" />
        </mxCell>
        <mxCell id="5c82df7aa0dc6260-20" value="" style="fontColor=#0066CC;verticalAlign=top;verticalLabelPosition=bottom;labelPosition=center;align=center;html=1;fillColor=#CCCCCC;strokeColor=#000000;gradientColor=none;gradientDirection=north;strokeWidth=2;shape=mxgraph.networks.community;rounded=1;shadow=0;comic=0;" parent="1" vertex="1">
          <mxGeometry x="1630" y="78" width="95" height="100" as="geometry" />
        </mxCell>
        <mxCell id="5c82df7aa0dc6260-22" value="" style="fontColor=#0066CC;verticalAlign=top;verticalLabelPosition=bottom;labelPosition=center;align=center;html=1;fillColor=#CCCCCC;strokeColor=#000000;gradientColor=none;gradientDirection=north;strokeWidth=2;shape=mxgraph.networks.business_center;rounded=1;shadow=0;comic=0;labelBackgroundColor=none;" parent="1" vertex="1">
          <mxGeometry x="1490" y="123" width="90" height="100" as="geometry" />
        </mxCell>
        <mxCell id="5c82df7aa0dc6260-31" value="" style="shape=image;html=1;verticalAlign=top;verticalLabelPosition=bottom;labelBackgroundColor=#ffffff;imageAspect=0;aspect=fixed;image=https://cdn0.iconfinder.com/data/icons/fatcow/32x32/tree.png;rounded=1;shadow=0;comic=0;strokeColor=#6881B3;strokeWidth=2;fillColor=#CCFFCC;fontColor=#0066CC;" parent="1" vertex="1">
          <mxGeometry x="1805" y="569.5" width="32" height="32" as="geometry" />
        </mxCell>
        <mxCell id="5c82df7aa0dc6260-32" value="" style="shape=image;html=1;verticalAlign=top;verticalLabelPosition=bottom;labelBackgroundColor=#ffffff;imageAspect=0;aspect=fixed;image=https://cdn0.iconfinder.com/data/icons/fatcow/32x32/tree.png;rounded=1;shadow=0;comic=0;strokeColor=#6881B3;strokeWidth=2;fillColor=#CCFFCC;fontColor=#0066CC;" parent="1" vertex="1">
          <mxGeometry x="1823" y="573.5" width="12" height="12" as="geometry" />
        </mxCell>
        <mxCell id="5c82df7aa0dc6260-33" value="" style="shape=image;html=1;verticalAlign=top;verticalLabelPosition=bottom;labelBackgroundColor=#ffffff;imageAspect=0;aspect=fixed;image=https://cdn0.iconfinder.com/data/icons/fatcow/32x32/tree.png;rounded=1;shadow=0;comic=0;strokeColor=#6881B3;strokeWidth=2;fillColor=#CCFFCC;fontColor=#0066CC;" parent="1" vertex="1">
          <mxGeometry x="1815" y="601.5" width="32" height="32" as="geometry" />
        </mxCell>
        <mxCell id="5c82df7aa0dc6260-34" value="" style="shape=image;html=1;verticalAlign=top;verticalLabelPosition=bottom;labelBackgroundColor=#ffffff;imageAspect=0;aspect=fixed;image=https://cdn0.iconfinder.com/data/icons/fatcow/32x32/tree.png;rounded=1;shadow=0;comic=0;strokeColor=#6881B3;strokeWidth=2;fillColor=#CCFFCC;fontColor=#0066CC;" parent="1" vertex="1">
          <mxGeometry x="1651" y="633.5" width="32" height="32" as="geometry" />
        </mxCell>
        <mxCell id="5c82df7aa0dc6260-38" value="" style="shape=image;html=1;verticalAlign=top;verticalLabelPosition=bottom;labelBackgroundColor=#ffffff;imageAspect=0;aspect=fixed;image=https://cdn0.iconfinder.com/data/icons/fatcow/32x32/tree.png;rounded=1;shadow=0;comic=0;strokeColor=#6881B3;strokeWidth=2;fillColor=#CCFFCC;fontColor=#0066CC;" parent="1" vertex="1">
          <mxGeometry x="1679" y="741.5" width="32" height="32" as="geometry" />
        </mxCell>
        <mxCell id="5c82df7aa0dc6260-37" value="" style="shape=image;html=1;verticalAlign=top;verticalLabelPosition=bottom;labelBackgroundColor=#ffffff;imageAspect=0;aspect=fixed;image=https://cdn0.iconfinder.com/data/icons/fatcow/32x32/tree.png;rounded=1;shadow=0;comic=0;strokeColor=#6881B3;strokeWidth=2;fillColor=#CCFFCC;fontColor=#0066CC;" parent="1" vertex="1">
          <mxGeometry x="1663" y="757.5" width="32" height="32" as="geometry" />
        </mxCell>
        <mxCell id="5c82df7aa0dc6260-35" value="" style="shape=image;html=1;verticalAlign=top;verticalLabelPosition=bottom;labelBackgroundColor=#ffffff;imageAspect=0;aspect=fixed;image=https://cdn0.iconfinder.com/data/icons/fatcow/32x32/tree.png;rounded=1;shadow=0;comic=0;strokeColor=#6881B3;strokeWidth=2;fillColor=#CCFFCC;fontColor=#0066CC;" parent="1" vertex="1">
          <mxGeometry x="1664" y="647.5" width="54" height="54" as="geometry" />
        </mxCell>
        <mxCell id="5c82df7aa0dc6260-39" value="" style="shape=image;html=1;verticalAlign=top;verticalLabelPosition=bottom;labelBackgroundColor=#ffffff;imageAspect=0;aspect=fixed;image=https://cdn0.iconfinder.com/data/icons/fatcow/32x32/tree.png;rounded=1;shadow=0;comic=0;strokeColor=#6881B3;strokeWidth=2;fillColor=#CCFFCC;fontColor=#0066CC;" parent="1" vertex="1">
          <mxGeometry x="1821" y="731.5" width="32" height="32" as="geometry" />
        </mxCell>
        <mxCell id="5c82df7aa0dc6260-40" value="" style="shape=image;html=1;verticalAlign=top;verticalLabelPosition=bottom;labelBackgroundColor=#ffffff;imageAspect=0;aspect=fixed;image=https://cdn0.iconfinder.com/data/icons/fatcow/32x32/tree.png;rounded=1;shadow=0;comic=0;strokeColor=#6881B3;strokeWidth=2;fillColor=#CCFFCC;fontColor=#0066CC;" parent="1" vertex="1">
          <mxGeometry x="1835" y="737.5" width="32" height="32" as="geometry" />
        </mxCell>
        <mxCell id="5c82df7aa0dc6260-36" value="" style="shape=image;html=1;verticalAlign=top;verticalLabelPosition=bottom;labelBackgroundColor=#ffffff;imageAspect=0;aspect=fixed;image=https://cdn0.iconfinder.com/data/icons/fatcow/32x32/tree.png;rounded=1;shadow=0;comic=0;strokeColor=#6881B3;strokeWidth=2;fillColor=#CCFFCC;fontColor=#0066CC;" parent="1" vertex="1">
          <mxGeometry x="1829" y="757.5" width="32" height="32" as="geometry" />
        </mxCell>
        <mxCell id="5c82df7aa0dc6260-41" value="" style="shape=image;html=1;verticalAlign=top;verticalLabelPosition=bottom;labelBackgroundColor=#ffffff;imageAspect=0;aspect=fixed;image=https://cdn0.iconfinder.com/data/icons/fatcow/32x32/tree.png;rounded=1;shadow=0;comic=0;strokeColor=#6881B3;strokeWidth=2;fillColor=#CCFFCC;fontColor=#0066CC;" parent="1" vertex="1">
          <mxGeometry x="1893" y="686.5" width="32" height="32" as="geometry" />
        </mxCell>
        <mxCell id="5c82df7aa0dc6260-42" value="" style="shape=image;html=1;verticalAlign=top;verticalLabelPosition=bottom;labelBackgroundColor=#ffffff;imageAspect=0;aspect=fixed;image=https://cdn0.iconfinder.com/data/icons/fatcow/32x32/tree.png;rounded=1;shadow=0;comic=0;strokeColor=#6881B3;strokeWidth=2;fillColor=#CCFFCC;fontColor=#0066CC;" parent="1" vertex="1">
          <mxGeometry x="1632" y="644.5" width="32" height="32" as="geometry" />
        </mxCell>
        <mxCell id="5c82df7aa0dc6260-44" value="" style="ellipse;shape=cloud;whiteSpace=wrap;html=1;rounded=1;shadow=0;comic=0;strokeColor=none;strokeWidth=2;fillColor=#3399FF;fontColor=#0066CC;" parent="1" vertex="1">
          <mxGeometry x="1725" y="141" width="110" height="35" as="geometry" />
        </mxCell>
        <mxCell id="5c82df7aa0dc6260-45" value="" style="shape=image;html=1;verticalAlign=top;verticalLabelPosition=bottom;labelBackgroundColor=#ffffff;imageAspect=0;aspect=fixed;image=https://cdn0.iconfinder.com/data/icons/fatcow/32x32/tree.png;rounded=1;shadow=0;comic=0;strokeColor=#6881B3;strokeWidth=2;fillColor=#CCFFCC;fontColor=#0066CC;" parent="1" vertex="1">
          <mxGeometry x="2003" y="73" width="32" height="32" as="geometry" />
        </mxCell>
        <mxCell id="5c82df7aa0dc6260-46" value="" style="shape=image;html=1;verticalAlign=top;verticalLabelPosition=bottom;labelBackgroundColor=#ffffff;imageAspect=0;aspect=fixed;image=https://cdn0.iconfinder.com/data/icons/fatcow/32x32/tree.png;rounded=1;shadow=0;comic=0;strokeColor=#6881B3;strokeWidth=2;fillColor=#CCFFCC;fontColor=#0066CC;" parent="1" vertex="1">
          <mxGeometry x="2035" y="83" width="32" height="32" as="geometry" />
        </mxCell>
        <mxCell id="5c82df7aa0dc6260-47" value="" style="shape=image;html=1;verticalAlign=top;verticalLabelPosition=bottom;labelBackgroundColor=#ffffff;imageAspect=0;aspect=fixed;image=https://cdn0.iconfinder.com/data/icons/fatcow/32x32/tree.png;rounded=1;shadow=0;comic=0;strokeColor=#6881B3;strokeWidth=2;fillColor=#CCFFCC;fontColor=#0066CC;" parent="1" vertex="1">
          <mxGeometry x="2023" y="93" width="32" height="32" as="geometry" />
        </mxCell>
        <mxCell id="5c82df7aa0dc6260-48" value="" style="shape=image;html=1;verticalAlign=top;verticalLabelPosition=bottom;labelBackgroundColor=#ffffff;imageAspect=0;aspect=fixed;image=https://cdn0.iconfinder.com/data/icons/fatcow/32x32/tree.png;rounded=1;shadow=0;comic=0;strokeColor=#6881B3;strokeWidth=2;fillColor=#CCFFCC;fontColor=#0066CC;" parent="1" vertex="1">
          <mxGeometry x="2057" y="96" width="32" height="32" as="geometry" />
        </mxCell>
        <mxCell id="5c82df7aa0dc6260-49" value="" style="shape=image;html=1;verticalAlign=top;verticalLabelPosition=bottom;labelBackgroundColor=#ffffff;imageAspect=0;aspect=fixed;image=https://cdn0.iconfinder.com/data/icons/fatcow/32x32/tree.png;rounded=1;shadow=0;comic=0;strokeColor=#6881B3;strokeWidth=2;fillColor=#CCFFCC;fontColor=#0066CC;" parent="1" vertex="1">
          <mxGeometry x="1871" y="233" width="32" height="32" as="geometry" />
        </mxCell>
        <mxCell id="5c82df7aa0dc6260-50" value="" style="shape=image;html=1;verticalAlign=top;verticalLabelPosition=bottom;labelBackgroundColor=#ffffff;imageAspect=0;aspect=fixed;image=https://cdn0.iconfinder.com/data/icons/fatcow/32x32/tree.png;rounded=1;shadow=0;comic=0;strokeColor=#6881B3;strokeWidth=2;fillColor=#CCFFCC;fontColor=#0066CC;" parent="1" vertex="1">
          <mxGeometry x="1895" y="241" width="32" height="32" as="geometry" />
        </mxCell>
        <mxCell id="5c82df7aa0dc6260-51" value="" style="shape=image;html=1;verticalAlign=top;verticalLabelPosition=bottom;labelBackgroundColor=#ffffff;imageAspect=0;aspect=fixed;image=https://cdn0.iconfinder.com/data/icons/fatcow/32x32/tree.png;rounded=1;shadow=0;comic=0;strokeColor=#6881B3;strokeWidth=2;fillColor=#CCFFCC;fontColor=#0066CC;" parent="1" vertex="1">
          <mxGeometry x="1879" y="257" width="32" height="32" as="geometry" />
        </mxCell>
        <mxCell id="5c82df7aa0dc6260-52" value="" style="shape=image;html=1;verticalAlign=top;verticalLabelPosition=bottom;labelBackgroundColor=#ffffff;imageAspect=0;aspect=fixed;image=https://cdn0.iconfinder.com/data/icons/fatcow/32x32/tree.png;rounded=1;shadow=0;comic=0;strokeColor=#6881B3;strokeWidth=2;fillColor=#CCFFCC;fontColor=#0066CC;" parent="1" vertex="1">
          <mxGeometry x="1787" y="116" width="32" height="32" as="geometry" />
        </mxCell>
        <mxCell id="5c82df7aa0dc6260-53" value="" style="shape=image;html=1;verticalAlign=top;verticalLabelPosition=bottom;labelBackgroundColor=#ffffff;imageAspect=0;aspect=fixed;image=https://cdn0.iconfinder.com/data/icons/fatcow/32x32/tree.png;rounded=1;shadow=0;comic=0;strokeColor=#6881B3;strokeWidth=2;fillColor=#CCFFCC;fontColor=#0066CC;" parent="1" vertex="1">
          <mxGeometry x="1748" y="112" width="32" height="32" as="geometry" />
        </mxCell>
        <mxCell id="5c82df7aa0dc6260-54" value="" style="shape=image;html=1;verticalAlign=top;verticalLabelPosition=bottom;labelBackgroundColor=#ffffff;imageAspect=0;aspect=fixed;image=https://cdn0.iconfinder.com/data/icons/fatcow/32x32/tree.png;rounded=1;shadow=0;comic=0;strokeColor=#6881B3;strokeWidth=2;fillColor=#CCFFCC;fontColor=#0066CC;" parent="1" vertex="1">
          <mxGeometry x="1721" y="148" width="32" height="32" as="geometry" />
        </mxCell>
        <mxCell id="5c82df7aa0dc6260-55" value="" style="shape=image;html=1;verticalAlign=top;verticalLabelPosition=bottom;labelBackgroundColor=#ffffff;imageAspect=0;aspect=fixed;image=https://cdn0.iconfinder.com/data/icons/fatcow/32x32/tree.png;rounded=1;shadow=0;comic=0;strokeColor=#6881B3;strokeWidth=2;fillColor=#CCFFCC;fontColor=#0066CC;" parent="1" vertex="1">
          <mxGeometry x="1535" y="112" width="32" height="32" as="geometry" />
        </mxCell>
        <mxCell id="5c82df7aa0dc6260-56" value="" style="shape=image;html=1;verticalAlign=top;verticalLabelPosition=bottom;labelBackgroundColor=#ffffff;imageAspect=0;aspect=fixed;image=https://cdn0.iconfinder.com/data/icons/fatcow/32x32/tree.png;rounded=1;shadow=0;comic=0;strokeColor=#6881B3;strokeWidth=2;fillColor=#CCFFCC;fontColor=#0066CC;" parent="1" vertex="1">
          <mxGeometry x="1551" y="117" width="32" height="32" as="geometry" />
        </mxCell>
        <mxCell id="5c82df7aa0dc6260-57" value="" style="shape=image;html=1;verticalAlign=top;verticalLabelPosition=bottom;labelBackgroundColor=#ffffff;imageAspect=0;aspect=fixed;image=https://cdn0.iconfinder.com/data/icons/fatcow/32x32/tree.png;rounded=1;shadow=0;comic=0;strokeColor=#6881B3;strokeWidth=2;fillColor=#CCFFCC;fontColor=#0066CC;" parent="1" vertex="1">
          <mxGeometry x="1567" y="225" width="32" height="32" as="geometry" />
        </mxCell>
        <mxCell id="5c82df7aa0dc6260-64" value="" style="shape=image;html=1;verticalAlign=top;verticalLabelPosition=bottom;labelBackgroundColor=#ffffff;imageAspect=0;aspect=fixed;image=https://cdn0.iconfinder.com/data/icons/fatcow/32x32/tree.png;rounded=1;shadow=0;comic=0;strokeColor=#6881B3;strokeWidth=2;fillColor=#CCFFCC;fontColor=#0066CC;" parent="1" vertex="1">
          <mxGeometry x="375" y="525.5" width="32" height="32" as="geometry" />
        </mxCell>
        <mxCell id="5c82df7aa0dc6260-65" value="" style="shape=image;html=1;verticalAlign=top;verticalLabelPosition=bottom;labelBackgroundColor=#ffffff;imageAspect=0;aspect=fixed;image=https://cdn0.iconfinder.com/data/icons/fatcow/32x32/tree.png;rounded=1;shadow=0;comic=0;strokeColor=#6881B3;strokeWidth=2;fillColor=#CCFFCC;fontColor=#0066CC;" parent="1" vertex="1">
          <mxGeometry x="280" y="518.5" width="32" height="32" as="geometry" />
        </mxCell>
        <mxCell id="5c82df7aa0dc6260-66" value="" style="shape=image;html=1;verticalAlign=top;verticalLabelPosition=bottom;labelBackgroundColor=#ffffff;imageAspect=0;aspect=fixed;image=https://cdn0.iconfinder.com/data/icons/fatcow/32x32/tree.png;rounded=1;shadow=0;comic=0;strokeColor=#6881B3;strokeWidth=2;fillColor=#CCFFCC;fontColor=#0066CC;" parent="1" vertex="1">
          <mxGeometry x="290" y="528.5" width="32" height="32" as="geometry" />
        </mxCell>
        <mxCell id="5c82df7aa0dc6260-67" value="" style="shape=image;html=1;verticalAlign=top;verticalLabelPosition=bottom;labelBackgroundColor=#ffffff;imageAspect=0;aspect=fixed;image=https://cdn0.iconfinder.com/data/icons/fatcow/32x32/tree.png;rounded=1;shadow=0;comic=0;strokeColor=#6881B3;strokeWidth=2;fillColor=#CCFFCC;fontColor=#0066CC;" parent="1" vertex="1">
          <mxGeometry x="322" y="550.5" width="32" height="32" as="geometry" />
        </mxCell>
        <mxCell id="5c82df7aa0dc6260-68" value="" style="shape=image;html=1;verticalAlign=top;verticalLabelPosition=bottom;labelBackgroundColor=#ffffff;imageAspect=0;aspect=fixed;image=https://cdn0.iconfinder.com/data/icons/fatcow/32x32/tree.png;rounded=1;shadow=0;comic=0;strokeColor=#6881B3;strokeWidth=2;fillColor=#CCFFCC;fontColor=#0066CC;" parent="1" vertex="1">
          <mxGeometry x="130" y="706.5" width="32" height="32" as="geometry" />
        </mxCell>
        <mxCell id="5c82df7aa0dc6260-69" value="" style="shape=image;html=1;verticalAlign=top;verticalLabelPosition=bottom;labelBackgroundColor=#ffffff;imageAspect=0;aspect=fixed;image=https://cdn0.iconfinder.com/data/icons/fatcow/32x32/tree.png;rounded=1;shadow=0;comic=0;strokeColor=#6881B3;strokeWidth=2;fillColor=#CCFFCC;fontColor=#0066CC;" parent="1" vertex="1">
          <mxGeometry x="180" y="682.5" width="32" height="32" as="geometry" />
        </mxCell>
        <mxCell id="5c82df7aa0dc6260-70" value="" style="shape=image;html=1;verticalAlign=top;verticalLabelPosition=bottom;labelBackgroundColor=#ffffff;imageAspect=0;aspect=fixed;image=https://cdn0.iconfinder.com/data/icons/fatcow/32x32/tree.png;rounded=1;shadow=0;comic=0;strokeColor=#6881B3;strokeWidth=2;fillColor=#CCFFCC;fontColor=#0066CC;" parent="1" vertex="1">
          <mxGeometry x="164" y="709.5" width="32" height="32" as="geometry" />
        </mxCell>
        <mxCell id="5c82df7aa0dc6260-71" value="" style="shape=image;html=1;verticalAlign=top;verticalLabelPosition=bottom;labelBackgroundColor=#ffffff;imageAspect=0;aspect=fixed;image=https://cdn0.iconfinder.com/data/icons/fatcow/32x32/tree.png;rounded=1;shadow=0;comic=0;strokeColor=#6881B3;strokeWidth=2;fillColor=#CCFFCC;fontColor=#0066CC;" parent="1" vertex="1">
          <mxGeometry x="196" y="700.5" width="32" height="32" as="geometry" />
        </mxCell>
        <mxCell id="5c82df7aa0dc6260-72" value="" style="shape=image;html=1;verticalAlign=top;verticalLabelPosition=bottom;labelBackgroundColor=#ffffff;imageAspect=0;aspect=fixed;image=https://cdn0.iconfinder.com/data/icons/fatcow/32x32/tree.png;rounded=1;shadow=0;comic=0;strokeColor=#6881B3;strokeWidth=2;fillColor=#CCFFCC;fontColor=#0066CC;" parent="1" vertex="1">
          <mxGeometry x="623" y="656.5" width="32" height="32" as="geometry" />
        </mxCell>
        <mxCell id="5c82df7aa0dc6260-73" value="" style="shape=image;html=1;verticalAlign=top;verticalLabelPosition=bottom;labelBackgroundColor=#ffffff;imageAspect=0;aspect=fixed;image=https://cdn0.iconfinder.com/data/icons/fatcow/32x32/tree.png;rounded=1;shadow=0;comic=0;strokeColor=#6881B3;strokeWidth=2;fillColor=#CCFFCC;fontColor=#0066CC;" parent="1" vertex="1">
          <mxGeometry x="607" y="668.5" width="32" height="32" as="geometry" />
        </mxCell>
        <mxCell id="5c82df7aa0dc6260-74" value="" style="shape=image;html=1;verticalAlign=top;verticalLabelPosition=bottom;labelBackgroundColor=#ffffff;imageAspect=0;aspect=fixed;image=https://cdn0.iconfinder.com/data/icons/fatcow/32x32/tree.png;rounded=1;shadow=0;comic=0;strokeColor=#6881B3;strokeWidth=2;fillColor=#CCFFCC;fontColor=#0066CC;" parent="1" vertex="1">
          <mxGeometry x="578" y="640.5" width="32" height="32" as="geometry" />
        </mxCell>
        <mxCell id="5c82df7aa0dc6260-75" value="" style="shape=image;html=1;verticalAlign=top;verticalLabelPosition=bottom;labelBackgroundColor=#ffffff;imageAspect=0;aspect=fixed;image=https://cdn0.iconfinder.com/data/icons/fatcow/32x32/tree.png;rounded=1;shadow=0;comic=0;strokeColor=#6881B3;strokeWidth=2;fillColor=#CCFFCC;fontColor=#0066CC;" parent="1" vertex="1">
          <mxGeometry x="440" y="714.5" width="32" height="32" as="geometry" />
        </mxCell>
        <mxCell id="5c82df7aa0dc6260-76" value="" style="shape=image;html=1;verticalAlign=top;verticalLabelPosition=bottom;labelBackgroundColor=#ffffff;imageAspect=0;aspect=fixed;image=https://cdn0.iconfinder.com/data/icons/fatcow/32x32/tree.png;rounded=1;shadow=0;comic=0;strokeColor=#6881B3;strokeWidth=2;fillColor=#CCFFCC;fontColor=#0066CC;" parent="1" vertex="1">
          <mxGeometry x="424" y="724.5" width="32" height="32" as="geometry" />
        </mxCell>
        <mxCell id="lh2GoDfIzw1LJvhVg8yS-1" value="" style="fontColor=#0066CC;verticalAlign=top;verticalLabelPosition=bottom;labelPosition=center;align=center;html=1;fillColor=#CCCCCC;strokeColor=#000000;gradientColor=none;gradientDirection=north;strokeWidth=2;shape=mxgraph.networks.community;rounded=1;shadow=0;comic=0;" vertex="1" parent="1">
          <mxGeometry x="1978" y="192" width="76" height="84.5" as="geometry" />
        </mxCell>
        <mxCell id="lh2GoDfIzw1LJvhVg8yS-5" value="" style="image;points=[];aspect=fixed;html=1;align=center;shadow=0;dashed=0;image=img/lib/allied_telesis/computer_and_terminals/Personal_Computer_Wireless.svg;" vertex="1" parent="1">
          <mxGeometry x="1667.5" y="257" width="63" height="64.2" as="geometry" />
        </mxCell>
        <mxCell id="lh2GoDfIzw1LJvhVg8yS-6" value="" style="image;points=[];aspect=fixed;html=1;align=center;shadow=0;dashed=0;image=img/lib/allied_telesis/computer_and_terminals/Personal_Computer_Wireless.svg;" vertex="1" parent="1">
          <mxGeometry x="554" y="544.3" width="63" height="64.2" as="geometry" />
        </mxCell>
        <mxCell id="lh2GoDfIzw1LJvhVg8yS-7" value="" style="image;points=[];aspect=fixed;html=1;align=center;shadow=0;dashed=0;image=img/lib/allied_telesis/computer_and_terminals/Personal_Computer_Wireless.svg;" vertex="1" parent="1">
          <mxGeometry x="1569" y="585.5" width="63" height="64.2" as="geometry" />
        </mxCell>
        <mxCell id="lh2GoDfIzw1LJvhVg8yS-9" value="" style="fontColor=#0066CC;verticalAlign=top;verticalLabelPosition=bottom;labelPosition=center;align=center;html=1;fillColor=#CCCCCC;strokeColor=#000000;gradientColor=none;gradientDirection=north;strokeWidth=2;shape=mxgraph.networks.business_center;rounded=1;shadow=0;comic=0;labelBackgroundColor=none;" vertex="1" parent="1">
          <mxGeometry x="424" y="518.5" width="90" height="100" as="geometry" />
        </mxCell>
        <mxCell id="lh2GoDfIzw1LJvhVg8yS-10" value="" style="fontColor=#0066CC;verticalAlign=top;verticalLabelPosition=bottom;labelPosition=center;align=center;html=1;fillColor=#CCCCCC;strokeColor=#000000;gradientColor=none;gradientDirection=north;strokeWidth=2;shape=mxgraph.networks.business_center;rounded=1;shadow=0;comic=0;labelBackgroundColor=none;" vertex="1" parent="1">
          <mxGeometry x="1540" y="682.5" width="90" height="100" as="geometry" />
        </mxCell>
        <mxCell id="lh2GoDfIzw1LJvhVg8yS-11" value="" style="fontColor=#0066CC;verticalAlign=top;verticalLabelPosition=bottom;labelPosition=center;align=center;html=1;fillColor=#CCCCCC;strokeColor=#000000;gradientColor=none;gradientDirection=north;strokeWidth=2;shape=mxgraph.networks.business_center;rounded=1;shadow=0;comic=0;labelBackgroundColor=none;" vertex="1" parent="1">
          <mxGeometry x="300" y="672" width="90" height="100" as="geometry" />
        </mxCell>
        <mxCell id="lh2GoDfIzw1LJvhVg8yS-12" value="" style="fontColor=#0066CC;verticalAlign=top;verticalLabelPosition=bottom;labelPosition=center;align=center;html=1;fillColor=#CCCCCC;strokeColor=#000000;gradientColor=none;gradientDirection=north;strokeWidth=2;shape=mxgraph.networks.business_center;rounded=1;shadow=0;comic=0;labelBackgroundColor=none;" vertex="1" parent="1">
          <mxGeometry x="138" y="558" width="90" height="100" as="geometry" />
        </mxCell>
        <mxCell id="lh2GoDfIzw1LJvhVg8yS-13" value="" style="ellipse;whiteSpace=wrap;html=1;rounded=1;shadow=0;comic=0;labelBackgroundColor=none;strokeColor=#6881B3;strokeWidth=2;fillColor=#CCFFCC;fontFamily=Helvetica;fontSize=22;fontColor=#000000;verticalAlign=middle;gradientColor=none;gradientDirection=north;" vertex="1" parent="1">
          <mxGeometry x="109" y="54.5" width="720" height="270" as="geometry" />
        </mxCell>
        <mxCell id="lh2GoDfIzw1LJvhVg8yS-14" value="" style="fontColor=#0066CC;verticalAlign=top;verticalLabelPosition=bottom;labelPosition=center;align=center;html=1;fillColor=#CCCCCC;strokeColor=#000000;gradientColor=none;gradientDirection=north;strokeWidth=2;shape=mxgraph.networks.business_center;rounded=1;shadow=0;comic=0;labelBackgroundColor=none;" vertex="1" parent="1">
          <mxGeometry x="564" y="37.5" width="90" height="100" as="geometry" />
        </mxCell>
        <mxCell id="lh2GoDfIzw1LJvhVg8yS-15" value="" style="fontColor=#0066CC;verticalAlign=top;verticalLabelPosition=bottom;labelPosition=center;align=center;html=1;fillColor=#CCCCCC;strokeColor=#000000;gradientColor=none;gradientDirection=north;strokeWidth=2;shape=mxgraph.networks.community;rounded=1;shadow=0;comic=0;" vertex="1" parent="1">
          <mxGeometry x="299" y="69.5" width="95" height="100" as="geometry" />
        </mxCell>
        <mxCell id="lh2GoDfIzw1LJvhVg8yS-16" value="" style="fontColor=#0066CC;verticalAlign=top;verticalLabelPosition=bottom;labelPosition=center;align=center;html=1;fillColor=#CCCCCC;strokeColor=#000000;gradientColor=none;gradientDirection=north;strokeWidth=2;shape=mxgraph.networks.business_center;rounded=1;shadow=0;comic=0;labelBackgroundColor=none;" vertex="1" parent="1">
          <mxGeometry x="159" y="114.5" width="90" height="100" as="geometry" />
        </mxCell>
        <mxCell id="lh2GoDfIzw1LJvhVg8yS-17" value="" style="ellipse;shape=cloud;whiteSpace=wrap;html=1;rounded=1;shadow=0;comic=0;strokeColor=none;strokeWidth=2;fillColor=#3399FF;fontColor=#0066CC;" vertex="1" parent="1">
          <mxGeometry x="394" y="132.5" width="110" height="35" as="geometry" />
        </mxCell>
        <mxCell id="lh2GoDfIzw1LJvhVg8yS-18" value="" style="shape=image;html=1;verticalAlign=top;verticalLabelPosition=bottom;labelBackgroundColor=#ffffff;imageAspect=0;aspect=fixed;image=https://cdn0.iconfinder.com/data/icons/fatcow/32x32/tree.png;rounded=1;shadow=0;comic=0;strokeColor=#6881B3;strokeWidth=2;fillColor=#CCFFCC;fontColor=#0066CC;" vertex="1" parent="1">
          <mxGeometry x="672" y="64.5" width="32" height="32" as="geometry" />
        </mxCell>
        <mxCell id="lh2GoDfIzw1LJvhVg8yS-19" value="" style="shape=image;html=1;verticalAlign=top;verticalLabelPosition=bottom;labelBackgroundColor=#ffffff;imageAspect=0;aspect=fixed;image=https://cdn0.iconfinder.com/data/icons/fatcow/32x32/tree.png;rounded=1;shadow=0;comic=0;strokeColor=#6881B3;strokeWidth=2;fillColor=#CCFFCC;fontColor=#0066CC;" vertex="1" parent="1">
          <mxGeometry x="704" y="74.5" width="32" height="32" as="geometry" />
        </mxCell>
        <mxCell id="lh2GoDfIzw1LJvhVg8yS-20" value="" style="shape=image;html=1;verticalAlign=top;verticalLabelPosition=bottom;labelBackgroundColor=#ffffff;imageAspect=0;aspect=fixed;image=https://cdn0.iconfinder.com/data/icons/fatcow/32x32/tree.png;rounded=1;shadow=0;comic=0;strokeColor=#6881B3;strokeWidth=2;fillColor=#CCFFCC;fontColor=#0066CC;" vertex="1" parent="1">
          <mxGeometry x="692" y="84.5" width="32" height="32" as="geometry" />
        </mxCell>
        <mxCell id="lh2GoDfIzw1LJvhVg8yS-21" value="" style="shape=image;html=1;verticalAlign=top;verticalLabelPosition=bottom;labelBackgroundColor=#ffffff;imageAspect=0;aspect=fixed;image=https://cdn0.iconfinder.com/data/icons/fatcow/32x32/tree.png;rounded=1;shadow=0;comic=0;strokeColor=#6881B3;strokeWidth=2;fillColor=#CCFFCC;fontColor=#0066CC;" vertex="1" parent="1">
          <mxGeometry x="726" y="87.5" width="32" height="32" as="geometry" />
        </mxCell>
        <mxCell id="lh2GoDfIzw1LJvhVg8yS-22" value="" style="shape=image;html=1;verticalAlign=top;verticalLabelPosition=bottom;labelBackgroundColor=#ffffff;imageAspect=0;aspect=fixed;image=https://cdn0.iconfinder.com/data/icons/fatcow/32x32/tree.png;rounded=1;shadow=0;comic=0;strokeColor=#6881B3;strokeWidth=2;fillColor=#CCFFCC;fontColor=#0066CC;" vertex="1" parent="1">
          <mxGeometry x="540" y="224.5" width="32" height="32" as="geometry" />
        </mxCell>
        <mxCell id="lh2GoDfIzw1LJvhVg8yS-23" value="" style="shape=image;html=1;verticalAlign=top;verticalLabelPosition=bottom;labelBackgroundColor=#ffffff;imageAspect=0;aspect=fixed;image=https://cdn0.iconfinder.com/data/icons/fatcow/32x32/tree.png;rounded=1;shadow=0;comic=0;strokeColor=#6881B3;strokeWidth=2;fillColor=#CCFFCC;fontColor=#0066CC;" vertex="1" parent="1">
          <mxGeometry x="564" y="232.5" width="32" height="32" as="geometry" />
        </mxCell>
        <mxCell id="lh2GoDfIzw1LJvhVg8yS-24" value="" style="shape=image;html=1;verticalAlign=top;verticalLabelPosition=bottom;labelBackgroundColor=#ffffff;imageAspect=0;aspect=fixed;image=https://cdn0.iconfinder.com/data/icons/fatcow/32x32/tree.png;rounded=1;shadow=0;comic=0;strokeColor=#6881B3;strokeWidth=2;fillColor=#CCFFCC;fontColor=#0066CC;" vertex="1" parent="1">
          <mxGeometry x="548" y="248.5" width="32" height="32" as="geometry" />
        </mxCell>
        <mxCell id="lh2GoDfIzw1LJvhVg8yS-25" value="" style="shape=image;html=1;verticalAlign=top;verticalLabelPosition=bottom;labelBackgroundColor=#ffffff;imageAspect=0;aspect=fixed;image=https://cdn0.iconfinder.com/data/icons/fatcow/32x32/tree.png;rounded=1;shadow=0;comic=0;strokeColor=#6881B3;strokeWidth=2;fillColor=#CCFFCC;fontColor=#0066CC;" vertex="1" parent="1">
          <mxGeometry x="456" y="107.5" width="32" height="32" as="geometry" />
        </mxCell>
        <mxCell id="lh2GoDfIzw1LJvhVg8yS-26" value="" style="shape=image;html=1;verticalAlign=top;verticalLabelPosition=bottom;labelBackgroundColor=#ffffff;imageAspect=0;aspect=fixed;image=https://cdn0.iconfinder.com/data/icons/fatcow/32x32/tree.png;rounded=1;shadow=0;comic=0;strokeColor=#6881B3;strokeWidth=2;fillColor=#CCFFCC;fontColor=#0066CC;" vertex="1" parent="1">
          <mxGeometry x="417" y="103.5" width="32" height="32" as="geometry" />
        </mxCell>
        <mxCell id="lh2GoDfIzw1LJvhVg8yS-27" value="" style="shape=image;html=1;verticalAlign=top;verticalLabelPosition=bottom;labelBackgroundColor=#ffffff;imageAspect=0;aspect=fixed;image=https://cdn0.iconfinder.com/data/icons/fatcow/32x32/tree.png;rounded=1;shadow=0;comic=0;strokeColor=#6881B3;strokeWidth=2;fillColor=#CCFFCC;fontColor=#0066CC;" vertex="1" parent="1">
          <mxGeometry x="390" y="139.5" width="32" height="32" as="geometry" />
        </mxCell>
        <mxCell id="lh2GoDfIzw1LJvhVg8yS-28" value="" style="shape=image;html=1;verticalAlign=top;verticalLabelPosition=bottom;labelBackgroundColor=#ffffff;imageAspect=0;aspect=fixed;image=https://cdn0.iconfinder.com/data/icons/fatcow/32x32/tree.png;rounded=1;shadow=0;comic=0;strokeColor=#6881B3;strokeWidth=2;fillColor=#CCFFCC;fontColor=#0066CC;" vertex="1" parent="1">
          <mxGeometry x="204" y="103.5" width="32" height="32" as="geometry" />
        </mxCell>
        <mxCell id="lh2GoDfIzw1LJvhVg8yS-29" value="" style="shape=image;html=1;verticalAlign=top;verticalLabelPosition=bottom;labelBackgroundColor=#ffffff;imageAspect=0;aspect=fixed;image=https://cdn0.iconfinder.com/data/icons/fatcow/32x32/tree.png;rounded=1;shadow=0;comic=0;strokeColor=#6881B3;strokeWidth=2;fillColor=#CCFFCC;fontColor=#0066CC;" vertex="1" parent="1">
          <mxGeometry x="220" y="108.5" width="32" height="32" as="geometry" />
        </mxCell>
        <mxCell id="lh2GoDfIzw1LJvhVg8yS-30" value="" style="shape=image;html=1;verticalAlign=top;verticalLabelPosition=bottom;labelBackgroundColor=#ffffff;imageAspect=0;aspect=fixed;image=https://cdn0.iconfinder.com/data/icons/fatcow/32x32/tree.png;rounded=1;shadow=0;comic=0;strokeColor=#6881B3;strokeWidth=2;fillColor=#CCFFCC;fontColor=#0066CC;" vertex="1" parent="1">
          <mxGeometry x="236" y="216.5" width="32" height="32" as="geometry" />
        </mxCell>
        <mxCell id="lh2GoDfIzw1LJvhVg8yS-31" value="" style="fontColor=#0066CC;verticalAlign=top;verticalLabelPosition=bottom;labelPosition=center;align=center;html=1;fillColor=#CCCCCC;strokeColor=#000000;gradientColor=none;gradientDirection=north;strokeWidth=2;shape=mxgraph.networks.community;rounded=1;shadow=0;comic=0;" vertex="1" parent="1">
          <mxGeometry x="390" y="216.5" width="76" height="84.5" as="geometry" />
        </mxCell>
        <mxCell id="lh2GoDfIzw1LJvhVg8yS-32" value="" style="image;points=[];aspect=fixed;html=1;align=center;shadow=0;dashed=0;image=img/lib/allied_telesis/computer_and_terminals/Personal_Computer_Wireless.svg;" vertex="1" parent="1">
          <mxGeometry x="654" y="225" width="63" height="64.2" as="geometry" />
        </mxCell>
        <mxCell id="lh2GoDfIzw1LJvhVg8yS-33" value="" style="image;points=[];aspect=fixed;html=1;align=center;shadow=0;dashed=0;image=img/lib/allied_telesis/storage/Datacenter_Server_Half_Rack_ToR.svg;" vertex="1" parent="1">
          <mxGeometry x="1000" y="273" width="292.46" height="380" as="geometry" />
        </mxCell>
        <mxCell id="lh2GoDfIzw1LJvhVg8yS-38" value="" style="endArrow=classic;html=1;rounded=0;strokeWidth=5;" edge="1" parent="1" source="lh2GoDfIzw1LJvhVg8yS-13" target="lh2GoDfIzw1LJvhVg8yS-33">
          <mxGeometry width="50" height="50" relative="1" as="geometry">
            <mxPoint x="890" y="210" as="sourcePoint" />
            <mxPoint x="940" y="160" as="targetPoint" />
          </mxGeometry>
        </mxCell>
        <mxCell id="lh2GoDfIzw1LJvhVg8yS-39" value="" style="endArrow=classic;html=1;rounded=0;exitX=1;exitY=0.5;exitDx=0;exitDy=0;entryX=-0.021;entryY=0.561;entryDx=0;entryDy=0;entryPerimeter=0;strokeWidth=5;" edge="1" parent="1" target="lh2GoDfIzw1LJvhVg8yS-33">
          <mxGeometry width="50" height="50" relative="1" as="geometry">
            <mxPoint x="703" y="625" as="sourcePoint" />
            <mxPoint x="874" y="772" as="targetPoint" />
          </mxGeometry>
        </mxCell>
        <mxCell id="lh2GoDfIzw1LJvhVg8yS-40" value="" style="endArrow=classic;html=1;rounded=0;exitX=1;exitY=0.5;exitDx=0;exitDy=0;strokeWidth=5;" edge="1" parent="1" target="lh2GoDfIzw1LJvhVg8yS-33">
          <mxGeometry width="50" height="50" relative="1" as="geometry">
            <mxPoint x="1683" y="324.5" as="sourcePoint" />
            <mxPoint x="1854" y="471.5" as="targetPoint" />
          </mxGeometry>
        </mxCell>
        <mxCell id="lh2GoDfIzw1LJvhVg8yS-41" value="" style="endArrow=classic;html=1;rounded=0;exitX=-0.193;exitY=0.188;exitDx=0;exitDy=0;exitPerimeter=0;strokeWidth=5;" edge="1" parent="1" source="lh2GoDfIzw1LJvhVg8yS-7">
          <mxGeometry width="50" height="50" relative="1" as="geometry">
            <mxPoint x="1679" y="425" as="sourcePoint" />
            <mxPoint x="1288" y="525.5" as="targetPoint" />
          </mxGeometry>
        </mxCell>
      </root>
    </mxGraphModel>
  </diagram>
</mxfile>
